<svg width="16" height="16" viewBox="0 0 16 16" fill="none" xmlns="http://www.w3.org/2000/svg">
<path d="M15.7672 1.11406C15.7538 0.884707 15.6567 0.668257 15.4942 0.505803C15.3317 0.34335 15.1153 0.246204 14.8859 0.23281C11.7922 0.050779 9.0586 0.415623 6.76094 1.3164C4.56251 2.17812 2.86797 3.51406 1.8586 5.17969C0.482037 7.4539 0.478912 10.2148 1.82344 12.8508L0.461724 14.2125C0.374519 14.2997 0.305343 14.4032 0.258147 14.5172C0.210952 14.6311 0.186661 14.7532 0.186661 14.8766C0.186661 14.9999 0.210952 15.122 0.258147 15.2359C0.305343 15.3499 0.374519 15.4534 0.461724 15.5406C0.637845 15.7167 0.876715 15.8157 1.12579 15.8157C1.24911 15.8157 1.37124 15.7914 1.48518 15.7442C1.59912 15.697 1.70264 15.6278 1.78985 15.5406L3.15157 14.1789C4.45938 14.8461 5.79844 15.1828 7.09297 15.1828C8.40822 15.1869 9.69899 14.8273 10.8227 14.1437C12.4883 13.1344 13.8242 11.4391 14.6859 9.2414C15.5844 6.94218 15.9492 4.20781 15.7672 1.11406ZM9.84844 12.5375C8.27891 13.4883 6.43751 13.5602 4.55782 12.7656L11.1625 6.16093C11.2497 6.07373 11.3189 5.9702 11.3661 5.85626C11.4133 5.74232 11.4376 5.6202 11.4376 5.49687C11.4376 5.37354 11.4133 5.25142 11.3661 5.13748C11.3189 5.02354 11.2497 4.92002 11.1625 4.83281C11.0753 4.7456 10.9718 4.67643 10.8578 4.62923C10.7439 4.58204 10.6218 4.55775 10.4984 4.55775C10.3751 4.55775 10.253 4.58204 10.1391 4.62923C10.0251 4.67643 9.92159 4.7456 9.83438 4.83281L3.23438 11.4422C2.44219 9.56719 2.51407 7.72109 3.46876 6.15156C5.10235 3.4539 8.97969 1.95469 13.9375 2.06953C14.0453 7.02578 12.5461 10.9039 9.84844 12.5375Z" fill="black"/>
</svg>
